<svg x="0" y="0" viewBox="0 0 44.81 41.45" xmlns="http://www.w3.org/2000/svg">
	<path d="M 22.62,14.36 L 44.45,16.442501 43.9,14.36 Z M 44.45,16.442501 L 22.62,18.6 44.79,18.6 Z M 22.62,18.6 L 44.45,16.442501 22.62,14.36 Z " style="fill:#FFFFFF;fill-opacity:1;" />
	<path d="M 20.796268,0.2753711 L 26.968945,0.18669921 24.18,0 Z M 26.968945,0.18669921 L 32.1784,1.6068165 29.642813,0.73046875 Z M 32.1784,1.6068165 L 36.741913,4.2592773 34.552498,2.79125 Z M 36.741913,4.2592773 L 40.47387,7.9481444 38.72344,5.9864063 Z M 40.47387,7.9481444 L 32.05,10.12 41.97,10.12 Z M 11.723692,16.31713 L 0,18.6 11.14,18.6 Z M 0,18.6 L 0.29375002,14.653749 0,15.36 Z M 0.29375002,14.653749 L 4.47,14.36 1,14.36 Z M 4.47,14.36 L 7.3879685,8.602032 5.711074,11.351347 Z M 7.3879685,8.602032 L 11.876249,4.05625 9.457441,6.1557617 Z M 11.876249,4.05625 L 17.588905,1.0723438 14.601152,2.3472073 Z M 17.588905,1.0723438 L 26.968945,0.18669921 20.796268,0.2753711 Z M 26.968945,0.18669921 L 36.741913,4.2592773 32.1784,1.6068165 Z M 36.741913,4.2592773 L 32.05,10.12 40.47387,7.9481444 Z M 12.683907,14.212031 L 0,18.6 11.723692,16.31713 Z M 0,18.6 L 4.47,14.36 0.29375002,14.653749 Z M 4.47,14.36 L 11.876249,4.05625 7.3879685,8.602032 Z M 11.876249,4.05625 L 26.968945,0.18669921 17.588905,1.0723438 Z M 26.968945,0.18669921 L 32.05,10.12 36.741913,4.2592773 Z M 13.981855,12.32373 L 0,18.6 12.683907,14.212031 Z M 4.47,14.36 L 26.968945,0.18669921 11.876249,4.05625 Z M 26.968945,0.18669921 L 30.302813,9.018749 32.05,10.12 Z M 15.57875,10.69125 L 0,18.6 13.981855,12.32373 Z M 0,18.6 L 26.968945,0.18669921 4.47,14.36 Z M 26.968945,0.18669921 L 28.3925,8.195 30.302813,9.018749 Z M 17.435802,9.353613 L 0,18.6 15.57875,10.69125 Z M 26.968945,0.18669921 L 26.343437,7.67875 28.3925,8.195 Z M 17.435802,9.353613 L 26.968945,0.18669921 0,18.6 Z M 26.968945,0.18669921 L 24.18,7.5 26.343437,7.67875 Z M 19.51422,8.349844 L 26.968945,0.18669921 17.435802,9.353613 Z M 26.968945,0.18669921 L 21.775215,7.7189646 24.18,7.5 Z M 21.775215,7.7189646 L 26.968945,0.18669921 19.51422,8.349844 Z " style="fill:#FFFFFF;fill-opacity:1;" />
	<path d="M 22.62,27.09 L 44.81,22.85 22.62,22.85 Z M 44.81,22.85 L 43.9,27.09 44.463753,25.0075 Z M 43.9,27.09 L 44.81,22.85 22.62,27.09 Z " style="fill:#FFFFFF;fill-opacity:1;" />
	<path d="M 30.307032,32.43125 L 41.97,31.33 32.05,31.33 Z M 41.97,31.33 L 38.727657,35.46781 40.47674,33.504726 Z M 38.727657,35.46781 L 34.55625,38.6625 36.74631,37.195114 Z M 34.55625,38.6625 L 29.644218,40.720936 32.181034,39.845818 Z M 29.644218,40.720936 L 24.18,41.45 26.969357,41.263714 Z M 24.18,41.45 L 17.588905,40.377655 20.796268,41.17463 Z M 17.588905,40.377655 L 11.876249,37.393745 14.601152,39.10279 Z M 11.876249,37.393745 L 7.3879685,32.84797 9.457441,35.294235 Z M 7.3879685,32.84797 L 4.47,27.09 5.711074,30.098652 Z M 4.47,27.09 L 0.29375002,26.79625 1,27.09 Z M 0.29375002,26.79625 L 0,22.85 0,26.09 Z M 0,22.85 L 11.723692,25.13 11.14,22.85 Z M 28.39625,33.255 L 41.97,31.33 30.307032,32.43125 Z M 41.97,31.33 L 34.55625,38.6625 38.727657,35.46781 Z M 34.55625,38.6625 L 24.18,41.45 29.644218,40.720936 Z M 24.18,41.45 L 11.876249,37.393745 17.588905,40.377655 Z M 11.876249,37.393745 L 4.47,27.09 7.3879685,32.84797 Z M 4.47,27.09 L 0,22.85 0.29375002,26.79625 Z M 0,22.85 L 12.683907,27.23375 11.723692,25.13 Z M 26.344843,33.771248 L 41.97,31.33 28.39625,33.255 Z M 41.97,31.33 L 24.18,41.45 34.55625,38.6625 Z M 24.18,41.45 L 4.47,27.09 11.876249,37.393745 Z M 4.47,27.09 L 12.683907,27.23375 0,22.85 Z M 26.344843,33.771248 L 24.18,41.45 41.97,31.33 Z M 4.47,27.09 L 13.981855,29.121876 12.683907,27.23375 Z M 24.18,33.95 L 24.18,41.45 26.344843,33.771248 Z M 24.18,41.45 L 13.981855,29.121876 4.47,27.09 Z M 21.775215,33.730625 L 24.18,41.45 24.18,33.95 Z M 24.18,41.45 L 15.57875,30.755001 13.981855,29.121876 Z M 19.51422,33.09875 L 24.18,41.45 21.775215,33.730625 Z M 24.18,41.45 L 17.435802,32.09375 15.57875,30.755001 Z M 17.435802,32.09375 L 24.18,41.45 19.51422,33.09875 Z " style="fill:#FFFFFF;fill-opacity:1;" />
</svg>
